<svg width="75" height="85" viewBox="0 0 75 85" fill="none" xmlns="http://www.w3.org/2000/svg">
<path d="M64.8906 24.9437L64.9594 25.5375L64.9813 26.1437V48.8562C64.981 50.133 64.6678 51.3903 64.069 52.518C63.4703 53.6457 62.6043 54.6095 61.5469 55.325L61.0781 55.6218L41.4063 66.9781L41.0188 67.1875L40.625 67.375V39.2812L64.8906 24.9437ZM10.1094 24.9437L34.375 39.2843V67.3718C34.1075 67.2552 33.8466 67.1238 33.5938 66.9781L13.925 55.6218C12.7374 54.9362 11.7512 53.95 11.0655 52.7624C10.3798 51.5747 10.0188 50.2276 10.0188 48.8562V26.1437C10.0188 25.7375 10.05 25.3375 10.1125 24.9437H10.1094ZM41.4063 8.02185L61.075 19.3781C61.2313 19.4718 61.3875 19.5656 61.5375 19.6656L37.5 33.875L13.4625 19.6625C13.6132 19.5612 13.7675 19.4653 13.925 19.375L33.5938 8.01872C34.7814 7.33303 36.1286 6.97205 37.5 6.97205C38.8714 6.97205 40.2186 7.33616 41.4063 8.02185Z" fill="black"/>
<path d="M35.9599 57.5996C36.3353 56.8396 37.4914 56.8026 37.9446 57.4856L38.0101 57.5996L39.1673 59.9446C40.1778 61.9915 41.8583 63.7119 43.984 64.8756L44.3416 65.0646L46.3962 66.1046C46.5596 66.1869 46.6974 66.3048 46.7972 66.4474C46.8971 66.59 46.9556 66.7528 46.9677 66.921C46.9797 67.0892 46.9448 67.2574 46.8661 67.4104C46.7875 67.5633 46.6675 67.6961 46.5173 67.7966L46.3973 67.8666L44.3416 68.9066C42.173 70.005 40.4286 71.6733 39.3417 73.6886L39.1673 74.0266L38.0101 76.3716C37.6347 77.1316 36.4786 77.1686 36.0254 76.4856L35.9599 76.3716L34.8027 74.0266C33.7922 71.9797 32.1117 70.2593 29.986 69.0956L29.6284 68.9066L27.5738 67.8666C27.4104 67.7843 27.2726 67.6664 27.1728 67.5238C27.0729 67.3813 27.0144 67.2184 27.0023 67.0502C26.9903 66.882 27.0252 66.7138 27.1039 66.5609C27.1825 66.4079 27.3025 66.2751 27.4527 66.1746L27.5727 66.1046L29.6284 65.0646C31.797 63.9663 33.5414 62.2979 34.6283 60.2826L34.8027 59.9446L35.9599 57.5996Z" fill="white"/>
<path d="M35.9599 60.5996C36.3353 59.8396 37.4914 59.8026 37.9446 60.4856L38.0101 60.5996L39.1673 62.9446C40.1778 64.9915 41.8583 66.7119 43.984 67.8756L44.3416 68.0646L46.3962 69.1046C46.5596 69.1869 46.6974 69.3048 46.7972 69.4474C46.8971 69.59 46.9556 69.7528 46.9677 69.921C46.9797 70.0892 46.9448 70.2574 46.8661 70.4104C46.7875 70.5633 46.6675 70.6961 46.5173 70.7966L46.3973 70.8666L44.3416 71.9066C42.173 73.005 40.4286 74.6733 39.3417 76.6886L39.1673 77.0266L38.0101 79.3716C37.6347 80.1316 36.4786 80.1686 36.0254 79.4856L35.9599 79.3716L34.8027 77.0266C33.7922 74.9797 32.1117 73.2593 29.986 72.0956L29.6284 71.9066L27.5738 70.8666C27.4104 70.7843 27.2726 70.6664 27.1728 70.5238C27.0729 70.3813 27.0144 70.2184 27.0023 70.0502C26.9903 69.882 27.0252 69.7138 27.1039 69.5609C27.1825 69.4079 27.3025 69.2751 27.4527 69.1746L27.5727 69.1046L29.6284 68.0646C31.797 66.9663 33.5414 65.2979 34.6283 63.2826L34.8027 62.9446L35.9599 60.5996Z" fill="url(#paint0_linear_63_3)"/>
<path d="M46.9354 75.3002C47.1421 74.9197 47.779 74.9012 48.0286 75.2432L48.0646 75.3002L48.7021 76.4744C49.2587 77.4994 50.1843 78.3608 51.3552 78.9435L51.5522 79.0381L52.684 79.5589C52.7739 79.6001 52.8499 79.6591 52.9048 79.7305C52.9598 79.8019 52.9921 79.8834 52.9987 79.9676C53.0054 80.0519 52.9861 80.1361 52.9428 80.2127C52.8995 80.2893 52.8334 80.3557 52.7506 80.4061L52.6846 80.4411L51.5522 80.9619C50.3577 81.5119 49.3968 82.3472 48.7981 83.3563L48.7021 83.5256L48.0646 84.6998C47.8579 85.0803 47.221 85.0988 46.9714 84.7568L46.9354 84.6998L46.2979 83.5256C45.7413 82.5006 44.8157 81.6392 43.6448 81.0565L43.4478 80.9619L42.316 80.4411C42.2261 80.3999 42.1501 80.3409 42.0952 80.2695C42.0402 80.1981 42.0079 80.1166 42.0013 80.0324C41.9946 79.9481 42.0139 79.8639 42.0572 79.7873C42.1005 79.7107 42.1666 79.6442 42.2494 79.5939L42.3154 79.5589L43.4478 79.0381C44.6423 78.4881 45.6032 77.6528 46.2019 76.6437L46.2979 76.4744L46.9354 75.3002Z" fill="url(#paint1_linear_63_3)"/>
<defs>
<linearGradient id="paint0_linear_63_3" x1="36.985" y1="60" x2="36.985" y2="79.9712" gradientUnits="userSpaceOnUse">
<stop stop-color="#7091FB"/>
<stop offset="1" stop-color="#FF41D6"/>
</linearGradient>
<linearGradient id="paint1_linear_63_3" x1="47.5" y1="75" x2="47.5" y2="85" gradientUnits="userSpaceOnUse">
<stop stop-color="#7091FB"/>
<stop offset="1" stop-color="#FF41D6"/>
</linearGradient>
</defs>
</svg>
