<svg width="479" height="85" viewBox="0 0 479 85" fill="none" xmlns="http://www.w3.org/2000/svg">
<path d="M64.8906 24.9437L64.9594 25.5375L64.9812 26.1437V48.8562C64.981 50.133 64.6677 51.3903 64.069 52.518C63.4703 53.6457 62.6043 54.6095 61.5469 55.325L61.0781 55.6218L41.4062 66.9781L41.0187 67.1875L40.625 67.375V39.2812L64.8906 24.9437ZM10.1094 24.9437L34.375 39.2843V67.3718C34.1075 67.2552 33.8466 67.1238 33.5937 66.9781L13.925 55.6218C12.7374 54.9362 11.7512 53.95 11.0655 52.7624C10.3798 51.5747 10.0188 50.2276 10.0187 48.8562V26.1437C10.0187 25.7375 10.05 25.3375 10.1125 24.9437H10.1094ZM41.4062 8.02185L61.075 19.3781C61.2312 19.4718 61.3875 19.5656 61.5375 19.6656L37.5 33.875L13.4625 19.6625C13.6132 19.5612 13.7675 19.4653 13.925 19.375L33.5937 8.01872C34.7814 7.33303 36.1286 6.97205 37.5 6.97205C38.8714 6.97205 40.2186 7.33616 41.4062 8.02185Z" fill="black"/>
<path d="M35.9599 57.5996C36.3353 56.8396 37.4914 56.8026 37.9446 57.4856L38.0101 57.5996L39.1673 59.9446C40.1778 61.9915 41.8583 63.7119 43.984 64.8756L44.3416 65.0646L46.3962 66.1046C46.5596 66.1869 46.6974 66.3048 46.7972 66.4474C46.8971 66.59 46.9556 66.7528 46.9677 66.921C46.9797 67.0892 46.9448 67.2574 46.8661 67.4104C46.7875 67.5633 46.6675 67.6961 46.5173 67.7966L46.3973 67.8666L44.3416 68.9066C42.173 70.005 40.4286 71.6733 39.3417 73.6886L39.1673 74.0266L38.0101 76.3716C37.6347 77.1316 36.4786 77.1686 36.0254 76.4856L35.9599 76.3716L34.8027 74.0266C33.7922 71.9797 32.1117 70.2593 29.986 69.0956L29.6284 68.9066L27.5738 67.8666C27.4104 67.7843 27.2726 67.6664 27.1728 67.5238C27.0729 67.3813 27.0144 67.2184 27.0023 67.0502C26.9903 66.882 27.0252 66.7138 27.1039 66.5609C27.1825 66.4079 27.3025 66.2751 27.4527 66.1746L27.5727 66.1046L29.6284 65.0646C31.797 63.9663 33.5414 62.2979 34.6283 60.2826L34.8027 59.9446L35.9599 57.5996Z" fill="white"/>
<path d="M35.9599 60.5996C36.3353 59.8396 37.4914 59.8026 37.9446 60.4856L38.0101 60.5996L39.1673 62.9446C40.1778 64.9915 41.8583 66.7119 43.984 67.8756L44.3416 68.0646L46.3962 69.1046C46.5596 69.1869 46.6974 69.3048 46.7972 69.4474C46.8971 69.59 46.9556 69.7528 46.9677 69.921C46.9797 70.0892 46.9448 70.2574 46.8661 70.4104C46.7875 70.5633 46.6675 70.6961 46.5173 70.7966L46.3973 70.8666L44.3416 71.9066C42.173 73.005 40.4286 74.6733 39.3417 76.6886L39.1673 77.0266L38.0101 79.3716C37.6347 80.1316 36.4786 80.1686 36.0254 79.4856L35.9599 79.3716L34.8027 77.0266C33.7922 74.9797 32.1117 73.2593 29.986 72.0956L29.6284 71.9066L27.5738 70.8666C27.4104 70.7843 27.2726 70.6664 27.1728 70.5238C27.0729 70.3813 27.0144 70.2184 27.0023 70.0502C26.9903 69.882 27.0252 69.7138 27.1039 69.5609C27.1825 69.4079 27.3025 69.2751 27.4527 69.1746L27.5727 69.1046L29.6284 68.0646C31.797 66.9663 33.5414 65.2979 34.6283 63.2826L34.8027 62.9446L35.9599 60.5996Z" fill="url(#paint0_linear_24_96)"/>
<path d="M46.9354 75.3002C47.1421 74.9197 47.779 74.9012 48.0286 75.2432L48.0646 75.3002L48.7021 76.4744C49.2587 77.4994 50.1843 78.3608 51.3552 78.9435L51.5522 79.0381L52.684 79.5589C52.7739 79.6001 52.8499 79.6591 52.9048 79.7305C52.9598 79.8019 52.9921 79.8834 52.9987 79.9676C53.0054 80.0519 52.9861 80.1361 52.9428 80.2127C52.8995 80.2893 52.8334 80.3557 52.7506 80.4061L52.6846 80.4411L51.5522 80.9619C50.3577 81.5119 49.3968 82.3472 48.7981 83.3563L48.7021 83.5256L48.0646 84.6998C47.8579 85.0803 47.221 85.0988 46.9714 84.7568L46.9354 84.6998L46.2979 83.5256C45.7413 82.5006 44.8157 81.6392 43.6448 81.0565L43.4478 80.9619L42.316 80.4411C42.2261 80.3999 42.1501 80.3409 42.0952 80.2695C42.0402 80.1981 42.0079 80.1166 42.0013 80.0324C41.9946 79.9481 42.0139 79.8639 42.0572 79.7873C42.1005 79.7107 42.1666 79.6442 42.2494 79.5939L42.3154 79.5589L43.4478 79.0381C44.6423 78.4881 45.6032 77.6528 46.2019 76.6437L46.2979 76.4744L46.9354 75.3002Z" fill="url(#paint1_linear_24_96)"/>
<path d="M110.88 60.6C107.16 60.6 104 59.96 101.4 58.68C98.84 57.36 96.88 55.5 95.52 53.1C94.16 50.66 93.4 47.74 93.24 44.34C93.2 42.7 93.18 40.94 93.18 39.06C93.18 37.18 93.2 35.38 93.24 33.66C93.4 30.3 94.16 27.4 95.52 24.96C96.92 22.52 98.9 20.66 101.46 19.38C104.06 18.06 107.2 17.4 110.88 17.4C113.6 17.4 116.04 17.76 118.2 18.48C120.36 19.2 122.2 20.2 123.72 21.48C125.24 22.72 126.42 24.18 127.26 25.86C128.1 27.54 128.54 29.36 128.58 31.32C128.62 31.68 128.5 31.98 128.22 32.22C127.98 32.46 127.68 32.58 127.32 32.58H121.62C121.18 32.58 120.82 32.48 120.54 32.28C120.26 32.04 120.06 31.66 119.94 31.14C119.3 28.5 118.2 26.7 116.64 25.74C115.08 24.78 113.14 24.3 110.82 24.3C108.14 24.3 106 25.06 104.4 26.58C102.8 28.06 101.94 30.52 101.82 33.96C101.7 37.24 101.7 40.6 101.82 44.04C101.94 47.48 102.8 49.96 104.4 51.48C106 52.96 108.14 53.7 110.82 53.7C113.14 53.7 115.08 53.22 116.64 52.26C118.2 51.26 119.3 49.46 119.94 46.86C120.06 46.3 120.26 45.92 120.54 45.72C120.82 45.52 121.18 45.42 121.62 45.42H127.32C127.68 45.42 127.98 45.54 128.22 45.78C128.5 46.02 128.62 46.32 128.58 46.68C128.54 48.64 128.1 50.46 127.26 52.14C126.42 53.82 125.24 55.3 123.72 56.58C122.2 57.82 120.36 58.8 118.2 59.52C116.04 60.24 113.6 60.6 110.88 60.6ZM148.776 60.6C145.576 60.6 142.876 60.04 140.676 58.92C138.516 57.8 136.856 56.22 135.696 54.18C134.576 52.14 133.936 49.76 133.776 47.04C133.736 46.32 133.716 45.44 133.716 44.4C133.716 43.36 133.736 42.48 133.776 41.76C133.936 39 134.596 36.62 135.756 34.62C136.956 32.58 138.636 31 140.796 29.88C142.996 28.76 145.656 28.2 148.776 28.2C151.896 28.2 154.536 28.76 156.696 29.88C158.896 31 160.576 32.58 161.736 34.62C162.936 36.62 163.616 39 163.776 41.76C163.816 42.48 163.836 43.36 163.836 44.4C163.836 45.44 163.816 46.32 163.776 47.04C163.616 49.76 162.956 52.14 161.796 54.18C160.676 56.22 159.016 57.8 156.816 58.92C154.656 60.04 151.976 60.6 148.776 60.6ZM148.776 54.66C150.896 54.66 152.536 54 153.696 52.68C154.856 51.32 155.496 49.34 155.616 46.74C155.656 46.14 155.676 45.36 155.676 44.4C155.676 43.44 155.656 42.66 155.616 42.06C155.496 39.5 154.856 37.54 153.696 36.18C152.536 34.82 150.896 34.14 148.776 34.14C146.656 34.14 145.016 34.82 143.856 36.18C142.696 37.54 142.056 39.5 141.936 42.06C141.896 42.66 141.876 43.44 141.876 44.4C141.876 45.36 141.896 46.14 141.936 46.74C142.056 49.34 142.696 51.32 143.856 52.68C145.016 54 146.656 54.66 148.776 54.66ZM171.923 60C171.523 60 171.183 59.86 170.903 59.58C170.623 59.3 170.483 58.96 170.483 58.56V30.24C170.483 29.84 170.623 29.5 170.903 29.22C171.183 28.94 171.523 28.8 171.923 28.8H176.843C177.243 28.8 177.583 28.94 177.863 29.22C178.143 29.5 178.283 29.84 178.283 30.24V32.7C179.323 31.42 180.643 30.36 182.243 29.52C183.883 28.64 185.903 28.2 188.303 28.2C190.743 28.2 192.863 28.76 194.663 29.88C196.463 30.96 197.843 32.5 198.803 34.5C199.803 36.5 200.303 38.9 200.303 41.7V58.56C200.303 58.96 200.163 59.3 199.883 59.58C199.603 59.86 199.263 60 198.863 60H193.583C193.183 60 192.843 59.86 192.563 59.58C192.283 59.3 192.143 58.96 192.143 58.56V42.06C192.143 39.74 191.563 37.92 190.403 36.6C189.283 35.28 187.643 34.62 185.483 34.62C183.403 34.62 181.743 35.28 180.503 36.6C179.263 37.92 178.643 39.74 178.643 42.06V58.56C178.643 58.96 178.503 59.3 178.223 59.58C177.943 59.86 177.603 60 177.203 60H171.923ZM218.027 60C217.387 60 216.907 59.86 216.587 59.58C216.307 59.26 216.067 58.9 215.867 58.5L204.647 30.66C204.567 30.46 204.527 30.28 204.527 30.12C204.527 29.76 204.647 29.46 204.887 29.22C205.167 28.94 205.487 28.8 205.847 28.8H210.707C211.187 28.8 211.547 28.94 211.787 29.22C212.027 29.46 212.187 29.7 212.267 29.94L220.247 51L228.227 29.94C228.307 29.7 228.467 29.46 228.707 29.22C228.947 28.94 229.307 28.8 229.787 28.8H234.707C235.027 28.8 235.307 28.94 235.547 29.22C235.827 29.46 235.967 29.76 235.967 30.12C235.967 30.28 235.947 30.46 235.907 30.66L224.627 58.5C224.467 58.9 224.227 59.26 223.907 59.58C223.587 59.86 223.107 60 222.467 60H218.027ZM254.127 60.6C250.927 60.6 248.227 60.04 246.027 58.92C243.867 57.8 242.207 56.22 241.047 54.18C239.927 52.14 239.287 49.76 239.127 47.04C239.087 46.32 239.067 45.44 239.067 44.4C239.067 43.36 239.087 42.48 239.127 41.76C239.287 39 239.947 36.62 241.107 34.62C242.307 32.58 243.987 31 246.147 29.88C248.347 28.76 251.007 28.2 254.127 28.2C257.247 28.2 259.887 28.76 262.047 29.88C264.247 31 265.927 32.58 267.087 34.62C268.287 36.62 268.967 39 269.127 41.76C269.167 42.48 269.187 43.36 269.187 44.4C269.187 45.44 269.167 46.32 269.127 47.04C268.967 49.76 268.307 52.14 267.147 54.18C266.027 56.22 264.367 57.8 262.167 58.92C260.007 60.04 257.327 60.6 254.127 60.6ZM254.127 54.66C256.247 54.66 257.887 54 259.047 52.68C260.207 51.32 260.847 49.34 260.967 46.74C261.007 46.14 261.027 45.36 261.027 44.4C261.027 43.44 261.007 42.66 260.967 42.06C260.847 39.5 260.207 37.54 259.047 36.18C257.887 34.82 256.247 34.14 254.127 34.14C252.007 34.14 250.367 34.82 249.207 36.18C248.047 37.54 247.407 39.5 247.287 42.06C247.247 42.66 247.227 43.44 247.227 44.4C247.227 45.36 247.247 46.14 247.287 46.74C247.407 49.34 248.047 51.32 249.207 52.68C250.367 54 252.007 54.66 254.127 54.66ZM291.135 60.6C287.415 60.6 284.295 60.06 281.775 58.98C279.295 57.86 277.395 56.42 276.075 54.66C274.795 52.86 274.115 50.98 274.035 49.02C274.035 48.66 274.155 48.36 274.395 48.12C274.635 47.88 274.935 47.76 275.295 47.76H280.635C281.155 47.76 281.535 47.88 281.775 48.12C282.055 48.32 282.295 48.58 282.495 48.9C282.735 49.66 283.195 50.42 283.875 51.18C284.555 51.9 285.475 52.5 286.635 52.98C287.835 53.46 289.335 53.7 291.135 53.7C294.015 53.7 296.155 53.22 297.555 52.26C298.995 51.3 299.715 50 299.715 48.36C299.715 47.2 299.335 46.28 298.575 45.6C297.815 44.88 296.635 44.24 295.035 43.68C293.475 43.08 291.395 42.46 288.795 41.82C285.795 41.1 283.275 40.24 281.235 39.24C279.235 38.2 277.715 36.9 276.675 35.34C275.675 33.78 275.175 31.8 275.175 29.4C275.175 27.08 275.795 25.02 277.035 23.22C278.315 21.42 280.115 20 282.435 18.96C284.795 17.92 287.595 17.4 290.835 17.4C293.435 17.4 295.735 17.76 297.735 18.48C299.735 19.16 301.395 20.08 302.715 21.24C304.035 22.36 305.035 23.58 305.715 24.9C306.435 26.18 306.815 27.44 306.855 28.68C306.855 29 306.735 29.3 306.495 29.58C306.295 29.82 305.995 29.94 305.595 29.94H300.015C299.695 29.94 299.375 29.86 299.055 29.7C298.735 29.54 298.475 29.24 298.275 28.8C298.035 27.56 297.255 26.5 295.935 25.62C294.615 24.74 292.915 24.3 290.835 24.3C288.675 24.3 286.935 24.7 285.615 25.5C284.295 26.3 283.635 27.54 283.635 29.22C283.635 30.34 283.955 31.28 284.595 32.04C285.275 32.76 286.335 33.4 287.775 33.96C289.255 34.52 291.195 35.12 293.595 35.76C296.995 36.52 299.775 37.4 301.935 38.4C304.095 39.4 305.675 40.68 306.675 42.24C307.675 43.76 308.175 45.7 308.175 48.06C308.175 50.7 307.455 52.96 306.015 54.84C304.615 56.68 302.635 58.1 300.075 59.1C297.515 60.1 294.535 60.6 291.135 60.6ZM315.831 71.4C315.431 71.4 315.091 71.26 314.811 70.98C314.531 70.7 314.391 70.36 314.391 69.96V30.24C314.391 29.84 314.531 29.5 314.811 29.22C315.091 28.94 315.431 28.8 315.831 28.8H320.571C321.011 28.8 321.351 28.94 321.591 29.22C321.871 29.5 322.011 29.84 322.011 30.24V32.64C322.971 31.36 324.231 30.3 325.791 29.46C327.351 28.62 329.291 28.2 331.611 28.2C333.731 28.2 335.571 28.54 337.131 29.22C338.691 29.9 339.991 30.88 341.031 32.16C342.071 33.4 342.871 34.88 343.431 36.6C343.991 38.32 344.311 40.22 344.391 42.3C344.431 42.98 344.451 43.68 344.451 44.4C344.451 45.12 344.431 45.84 344.391 46.56C344.351 48.56 344.051 50.42 343.491 52.14C342.931 53.82 342.111 55.3 341.031 56.58C339.991 57.82 338.691 58.8 337.131 59.52C335.571 60.24 333.731 60.6 331.611 60.6C329.451 60.6 327.611 60.22 326.091 59.46C324.571 58.66 323.331 57.62 322.371 56.34V69.96C322.371 70.36 322.231 70.7 321.951 70.98C321.711 71.26 321.371 71.4 320.931 71.4H315.831ZM329.391 54.18C331.111 54.18 332.451 53.82 333.411 53.1C334.371 52.34 335.051 51.36 335.451 50.16C335.891 48.96 336.151 47.64 336.231 46.2C336.311 45 336.311 43.8 336.231 42.6C336.151 41.16 335.891 39.84 335.451 38.64C335.051 37.44 334.371 36.48 333.411 35.76C332.451 35 331.111 34.62 329.391 34.62C327.751 34.62 326.411 35 325.371 35.76C324.371 36.52 323.631 37.5 323.151 38.7C322.711 39.86 322.451 41.06 322.371 42.3C322.331 43.02 322.311 43.78 322.311 44.58C322.311 45.38 322.331 46.16 322.371 46.92C322.411 48.12 322.691 49.28 323.211 50.4C323.731 51.48 324.491 52.38 325.491 53.1C326.491 53.82 327.791 54.18 329.391 54.18ZM352.687 60C352.287 60 351.947 59.86 351.667 59.58C351.387 59.3 351.247 58.96 351.247 58.56V18.84C351.247 18.44 351.387 18.1 351.667 17.82C351.947 17.54 352.287 17.4 352.687 17.4H358.027C358.467 17.4 358.807 17.54 359.047 17.82C359.327 18.1 359.467 18.44 359.467 18.84V32.52C360.547 31.24 361.867 30.2 363.427 29.4C364.987 28.6 366.907 28.2 369.187 28.2C371.627 28.2 373.747 28.76 375.547 29.88C377.387 30.96 378.807 32.5 379.807 34.5C380.807 36.5 381.307 38.9 381.307 41.7V58.56C381.307 58.96 381.167 59.3 380.887 59.58C380.607 59.86 380.267 60 379.867 60H374.467C374.067 60 373.727 59.86 373.447 59.58C373.167 59.3 373.027 58.96 373.027 58.56V42.06C373.027 39.74 372.447 37.92 371.287 36.6C370.167 35.28 368.527 34.62 366.367 34.62C364.287 34.62 362.607 35.28 361.327 36.6C360.087 37.92 359.467 39.74 359.467 42.06V58.56C359.467 58.96 359.327 59.3 359.047 59.58C358.807 59.86 358.467 60 358.027 60H352.687ZM402.361 60.6C397.921 60.6 394.401 59.32 391.801 56.76C389.201 54.2 387.801 50.56 387.601 45.84C387.561 45.44 387.541 44.94 387.541 44.34C387.541 43.7 387.561 43.2 387.601 42.84C387.761 39.84 388.441 37.24 389.641 35.04C390.881 32.84 392.581 31.16 394.741 30C396.901 28.8 399.441 28.2 402.361 28.2C405.601 28.2 408.321 28.88 410.521 30.24C412.721 31.56 414.381 33.42 415.501 35.82C416.621 38.18 417.181 40.92 417.181 44.04V45.3C417.181 45.7 417.041 46.04 416.761 46.32C416.481 46.6 416.121 46.74 415.681 46.74H395.761C395.761 46.74 395.761 46.8 395.761 46.92C395.761 47.04 395.761 47.14 395.761 47.22C395.801 48.62 396.061 49.92 396.541 51.12C397.061 52.28 397.801 53.22 398.761 53.94C399.761 54.66 400.941 55.02 402.301 55.02C403.421 55.02 404.361 54.86 405.121 54.54C405.881 54.18 406.501 53.78 406.981 53.34C407.461 52.9 407.801 52.54 408.001 52.26C408.361 51.78 408.641 51.5 408.841 51.42C409.081 51.3 409.421 51.24 409.861 51.24H415.021C415.421 51.24 415.741 51.36 415.981 51.6C416.261 51.84 416.381 52.14 416.341 52.5C416.301 53.14 415.961 53.92 415.321 54.84C414.721 55.76 413.841 56.66 412.681 57.54C411.521 58.42 410.061 59.16 408.301 59.76C406.581 60.32 404.601 60.6 402.361 60.6ZM395.761 41.7H409.021V41.52C409.021 39.96 408.761 38.6 408.241 37.44C407.721 36.28 406.961 35.36 405.961 34.68C404.961 34 403.761 33.66 402.361 33.66C400.961 33.66 399.761 34 398.761 34.68C397.761 35.36 397.001 36.28 396.481 37.44C396.001 38.6 395.761 39.96 395.761 41.52V41.7ZM424.99 60C424.59 60 424.25 59.86 423.97 59.58C423.69 59.3 423.55 58.96 423.55 58.56V30.3C423.55 29.86 423.69 29.5 423.97 29.22C424.25 28.94 424.59 28.8 424.99 28.8H429.85C430.25 28.8 430.59 28.94 430.87 29.22C431.19 29.5 431.35 29.86 431.35 30.3V32.76C432.27 31.48 433.45 30.5 434.89 29.82C436.37 29.14 438.07 28.8 439.99 28.8H442.45C442.89 28.8 443.23 28.94 443.47 29.22C443.75 29.5 443.89 29.84 443.89 30.24V34.56C443.89 34.96 443.75 35.3 443.47 35.58C443.23 35.86 442.89 36 442.45 36H437.77C435.85 36 434.35 36.54 433.27 37.62C432.23 38.7 431.71 40.18 431.71 42.06V58.56C431.71 58.96 431.57 59.3 431.29 59.58C431.01 59.86 430.65 60 430.21 60H424.99ZM461.599 60.6C457.159 60.6 453.639 59.32 451.039 56.76C448.439 54.2 447.039 50.56 446.839 45.84C446.799 45.44 446.779 44.94 446.779 44.34C446.779 43.7 446.799 43.2 446.839 42.84C446.999 39.84 447.679 37.24 448.879 35.04C450.119 32.84 451.819 31.16 453.979 30C456.139 28.8 458.679 28.2 461.599 28.2C464.839 28.2 467.559 28.88 469.759 30.24C471.959 31.56 473.619 33.42 474.739 35.82C475.859 38.18 476.419 40.92 476.419 44.04V45.3C476.419 45.7 476.279 46.04 475.999 46.32C475.719 46.6 475.359 46.74 474.919 46.74H454.999C454.999 46.74 454.999 46.8 454.999 46.92C454.999 47.04 454.999 47.14 454.999 47.22C455.039 48.62 455.299 49.92 455.779 51.12C456.299 52.28 457.039 53.22 457.999 53.94C458.999 54.66 460.179 55.02 461.539 55.02C462.659 55.02 463.599 54.86 464.359 54.54C465.119 54.18 465.739 53.78 466.219 53.34C466.699 52.9 467.039 52.54 467.239 52.26C467.599 51.78 467.879 51.5 468.079 51.42C468.319 51.3 468.659 51.24 469.099 51.24H474.259C474.659 51.24 474.979 51.36 475.219 51.6C475.499 51.84 475.619 52.14 475.579 52.5C475.539 53.14 475.199 53.92 474.559 54.84C473.959 55.76 473.079 56.66 471.919 57.54C470.759 58.42 469.299 59.16 467.539 59.76C465.819 60.32 463.839 60.6 461.599 60.6ZM454.999 41.7H468.259V41.52C468.259 39.96 467.999 38.6 467.479 37.44C466.959 36.28 466.199 35.36 465.199 34.68C464.199 34 462.999 33.66 461.599 33.66C460.199 33.66 458.999 34 457.999 34.68C456.999 35.36 456.239 36.28 455.719 37.44C455.239 38.6 454.999 39.96 454.999 41.52V41.7Z" fill="black"/>
<defs>
<linearGradient id="paint0_linear_24_96" x1="36.985" y1="60" x2="36.985" y2="79.9712" gradientUnits="userSpaceOnUse">
<stop stop-color="#7091FB"/>
<stop offset="1" stop-color="#FF41D6"/>
</linearGradient>
<linearGradient id="paint1_linear_24_96" x1="47.5" y1="75" x2="47.5" y2="85" gradientUnits="userSpaceOnUse">
<stop stop-color="#7091FB"/>
<stop offset="1" stop-color="#FF41D6"/>
</linearGradient>
</defs>
</svg>
