<svg width="491" height="120" viewBox="0 0 491 120" fill="none" xmlns="http://www.w3.org/2000/svg">
<rect width="491" height="120" rx="35" fill="white"/>
<path d="M70.8906 47.9437L70.9594 48.5375L70.9813 49.1437V71.8562C70.981 73.133 70.6678 74.3903 70.069 75.518C69.4703 76.6457 68.6043 77.6095 67.5469 78.325L67.0781 78.6218L47.4063 89.9781L47.0188 90.1875L46.625 90.375V62.2812L70.8906 47.9437ZM16.1094 47.9437L40.375 62.2843V90.3718C40.1075 90.2552 39.8466 90.1238 39.5938 89.9781L19.925 78.6218C18.7374 77.9362 17.7512 76.95 17.0655 75.7624C16.3798 74.5747 16.0188 73.2276 16.0188 71.8562V49.1437C16.0188 48.7375 16.05 48.3375 16.1125 47.9437H16.1094ZM47.4063 31.0218L67.075 42.3781C67.2313 42.4718 67.3875 42.5656 67.5375 42.6656L43.5 56.875L19.4625 42.6625C19.6132 42.5612 19.7675 42.4653 19.925 42.375L39.5938 31.0187C40.7814 30.333 42.1286 29.972 43.5 29.972C44.8714 29.972 46.2186 30.3362 47.4063 31.0218Z" fill="black"/>
<path d="M41.9599 80.5996C42.3353 79.8396 43.4914 79.8026 43.9446 80.4856L44.0101 80.5996L45.1673 82.9446C46.1778 84.9915 47.8583 86.7119 49.984 87.8756L50.3416 88.0646L52.3962 89.1046C52.5596 89.1869 52.6974 89.3048 52.7972 89.4474C52.8971 89.59 52.9556 89.7528 52.9677 89.921C52.9797 90.0892 52.9448 90.2574 52.8661 90.4104C52.7875 90.5633 52.6675 90.6961 52.5173 90.7966L52.3973 90.8666L50.3416 91.9066C48.173 93.005 46.4286 94.6733 45.3417 96.6886L45.1673 97.0266L44.0101 99.3716C43.6347 100.132 42.4786 100.169 42.0254 99.4856L41.9599 99.3716L40.8027 97.0266C39.7922 94.9797 38.1117 93.2593 35.986 92.0956L35.6284 91.9066L33.5738 90.8666C33.4104 90.7843 33.2726 90.6664 33.1728 90.5238C33.0729 90.3813 33.0144 90.2184 33.0023 90.0502C32.9903 89.882 33.0252 89.7138 33.1039 89.5609C33.1825 89.4079 33.3025 89.2751 33.4527 89.1746L33.5727 89.1046L35.6284 88.0646C37.797 86.9663 39.5414 85.2979 40.6283 83.2826L40.8027 82.9446L41.9599 80.5996Z" fill="white"/>
<path d="M41.9599 83.5996C42.3353 82.8396 43.4914 82.8026 43.9446 83.4856L44.0101 83.5996L45.1673 85.9446C46.1778 87.9915 47.8583 89.7119 49.984 90.8756L50.3416 91.0646L52.3962 92.1046C52.5596 92.1869 52.6974 92.3048 52.7972 92.4474C52.8971 92.59 52.9556 92.7528 52.9677 92.921C52.9797 93.0892 52.9448 93.2574 52.8661 93.4104C52.7875 93.5633 52.6675 93.6961 52.5173 93.7966L52.3973 93.8666L50.3416 94.9066C48.173 96.005 46.4286 97.6733 45.3417 99.6886L45.1673 100.027L44.0101 102.372C43.6347 103.132 42.4786 103.169 42.0254 102.486L41.9599 102.372L40.8027 100.027C39.7922 97.9797 38.1117 96.2593 35.986 95.0956L35.6284 94.9066L33.5738 93.8666C33.4104 93.7843 33.2726 93.6664 33.1728 93.5238C33.0729 93.3813 33.0144 93.2184 33.0023 93.0502C32.9903 92.882 33.0252 92.7138 33.1039 92.5609C33.1825 92.4079 33.3025 92.2751 33.4527 92.1746L33.5727 92.1046L35.6284 91.0646C37.797 89.9663 39.5414 88.2979 40.6283 86.2826L40.8027 85.9446L41.9599 83.5996Z" fill="url(#paint0_linear_64_11)"/>
<path d="M52.9354 98.3002C53.1421 97.9197 53.779 97.9012 54.0286 98.2432L54.0646 98.3002L54.7021 99.4744C55.2587 100.499 56.1843 101.361 57.3552 101.943L57.5522 102.038L58.684 102.559C58.7739 102.6 58.8499 102.659 58.9048 102.73C58.9598 102.802 58.9921 102.883 58.9987 102.968C59.0054 103.052 58.9861 103.136 58.9428 103.213C58.8995 103.289 58.8334 103.356 58.7506 103.406L58.6846 103.441L57.5522 103.962C56.3577 104.512 55.3968 105.347 54.7981 106.356L54.7021 106.526L54.0646 107.7C53.8579 108.08 53.221 108.099 52.9714 107.757L52.9354 107.7L52.2979 106.526C51.7413 105.501 50.8157 104.639 49.6448 104.057L49.4478 103.962L48.316 103.441C48.2261 103.4 48.1501 103.341 48.0952 103.27C48.0402 103.198 48.0079 103.117 48.0013 103.032C47.9946 102.948 48.0139 102.864 48.0572 102.787C48.1005 102.711 48.1666 102.644 48.2494 102.594L48.3154 102.559L49.4478 102.038C50.6423 101.488 51.6032 100.653 52.2019 99.6437L52.2979 99.4744L52.9354 98.3002Z" fill="url(#paint1_linear_64_11)"/>
<path d="M116.88 83.6C113.16 83.6 110 82.96 107.4 81.68C104.84 80.36 102.88 78.5 101.52 76.1C100.16 73.66 99.4 70.74 99.24 67.34C99.2 65.7 99.18 63.94 99.18 62.06C99.18 60.18 99.2 58.38 99.24 56.66C99.4 53.3 100.16 50.4 101.52 47.96C102.92 45.52 104.9 43.66 107.46 42.38C110.06 41.06 113.2 40.4 116.88 40.4C119.6 40.4 122.04 40.76 124.2 41.48C126.36 42.2 128.2 43.2 129.72 44.48C131.24 45.72 132.42 47.18 133.26 48.86C134.1 50.54 134.54 52.36 134.58 54.32C134.62 54.68 134.5 54.98 134.22 55.22C133.98 55.46 133.68 55.58 133.32 55.58H127.62C127.18 55.58 126.82 55.48 126.54 55.28C126.26 55.04 126.06 54.66 125.94 54.14C125.3 51.5 124.2 49.7 122.64 48.74C121.08 47.78 119.14 47.3 116.82 47.3C114.14 47.3 112 48.06 110.4 49.58C108.8 51.06 107.94 53.52 107.82 56.96C107.7 60.24 107.7 63.6 107.82 67.04C107.94 70.48 108.8 72.96 110.4 74.48C112 75.96 114.14 76.7 116.82 76.7C119.14 76.7 121.08 76.22 122.64 75.26C124.2 74.26 125.3 72.46 125.94 69.86C126.06 69.3 126.26 68.92 126.54 68.72C126.82 68.52 127.18 68.42 127.62 68.42H133.32C133.68 68.42 133.98 68.54 134.22 68.78C134.5 69.02 134.62 69.32 134.58 69.68C134.54 71.64 134.1 73.46 133.26 75.14C132.42 76.82 131.24 78.3 129.72 79.58C128.2 80.82 126.36 81.8 124.2 82.52C122.04 83.24 119.6 83.6 116.88 83.6ZM154.776 83.6C151.576 83.6 148.876 83.04 146.676 81.92C144.516 80.8 142.856 79.22 141.696 77.18C140.576 75.14 139.936 72.76 139.776 70.04C139.736 69.32 139.716 68.44 139.716 67.4C139.716 66.36 139.736 65.48 139.776 64.76C139.936 62 140.596 59.62 141.756 57.62C142.956 55.58 144.636 54 146.796 52.88C148.996 51.76 151.656 51.2 154.776 51.2C157.896 51.2 160.536 51.76 162.696 52.88C164.896 54 166.576 55.58 167.736 57.62C168.936 59.62 169.616 62 169.776 64.76C169.816 65.48 169.836 66.36 169.836 67.4C169.836 68.44 169.816 69.32 169.776 70.04C169.616 72.76 168.956 75.14 167.796 77.18C166.676 79.22 165.016 80.8 162.816 81.92C160.656 83.04 157.976 83.6 154.776 83.6ZM154.776 77.66C156.896 77.66 158.536 77 159.696 75.68C160.856 74.32 161.496 72.34 161.616 69.74C161.656 69.14 161.676 68.36 161.676 67.4C161.676 66.44 161.656 65.66 161.616 65.06C161.496 62.5 160.856 60.54 159.696 59.18C158.536 57.82 156.896 57.14 154.776 57.14C152.656 57.14 151.016 57.82 149.856 59.18C148.696 60.54 148.056 62.5 147.936 65.06C147.896 65.66 147.876 66.44 147.876 67.4C147.876 68.36 147.896 69.14 147.936 69.74C148.056 72.34 148.696 74.32 149.856 75.68C151.016 77 152.656 77.66 154.776 77.66ZM177.923 83C177.523 83 177.183 82.86 176.903 82.58C176.623 82.3 176.483 81.96 176.483 81.56V53.24C176.483 52.84 176.623 52.5 176.903 52.22C177.183 51.94 177.523 51.8 177.923 51.8H182.843C183.243 51.8 183.583 51.94 183.863 52.22C184.143 52.5 184.283 52.84 184.283 53.24V55.7C185.323 54.42 186.643 53.36 188.243 52.52C189.883 51.64 191.903 51.2 194.303 51.2C196.743 51.2 198.863 51.76 200.663 52.88C202.463 53.96 203.843 55.5 204.803 57.5C205.803 59.5 206.303 61.9 206.303 64.7V81.56C206.303 81.96 206.163 82.3 205.883 82.58C205.603 82.86 205.263 83 204.863 83H199.583C199.183 83 198.843 82.86 198.563 82.58C198.283 82.3 198.143 81.96 198.143 81.56V65.06C198.143 62.74 197.563 60.92 196.403 59.6C195.283 58.28 193.643 57.62 191.483 57.62C189.403 57.62 187.743 58.28 186.503 59.6C185.263 60.92 184.643 62.74 184.643 65.06V81.56C184.643 81.96 184.503 82.3 184.223 82.58C183.943 82.86 183.603 83 183.203 83H177.923ZM224.027 83C223.387 83 222.907 82.86 222.587 82.58C222.307 82.26 222.067 81.9 221.867 81.5L210.647 53.66C210.567 53.46 210.527 53.28 210.527 53.12C210.527 52.76 210.647 52.46 210.887 52.22C211.167 51.94 211.487 51.8 211.847 51.8H216.707C217.187 51.8 217.547 51.94 217.787 52.22C218.027 52.46 218.187 52.7 218.267 52.94L226.247 74L234.227 52.94C234.307 52.7 234.467 52.46 234.707 52.22C234.947 51.94 235.307 51.8 235.787 51.8H240.707C241.027 51.8 241.307 51.94 241.547 52.22C241.827 52.46 241.967 52.76 241.967 53.12C241.967 53.28 241.947 53.46 241.907 53.66L230.627 81.5C230.467 81.9 230.227 82.26 229.907 82.58C229.587 82.86 229.107 83 228.467 83H224.027ZM260.127 83.6C256.927 83.6 254.227 83.04 252.027 81.92C249.867 80.8 248.207 79.22 247.047 77.18C245.927 75.14 245.287 72.76 245.127 70.04C245.087 69.32 245.067 68.44 245.067 67.4C245.067 66.36 245.087 65.48 245.127 64.76C245.287 62 245.947 59.62 247.107 57.62C248.307 55.58 249.987 54 252.147 52.88C254.347 51.76 257.007 51.2 260.127 51.2C263.247 51.2 265.887 51.76 268.047 52.88C270.247 54 271.927 55.58 273.087 57.62C274.287 59.62 274.967 62 275.127 64.76C275.167 65.48 275.187 66.36 275.187 67.4C275.187 68.44 275.167 69.32 275.127 70.04C274.967 72.76 274.307 75.14 273.147 77.18C272.027 79.22 270.367 80.8 268.167 81.92C266.007 83.04 263.327 83.6 260.127 83.6ZM260.127 77.66C262.247 77.66 263.887 77 265.047 75.68C266.207 74.32 266.847 72.34 266.967 69.74C267.007 69.14 267.027 68.36 267.027 67.4C267.027 66.44 267.007 65.66 266.967 65.06C266.847 62.5 266.207 60.54 265.047 59.18C263.887 57.82 262.247 57.14 260.127 57.14C258.007 57.14 256.367 57.82 255.207 59.18C254.047 60.54 253.407 62.5 253.287 65.06C253.247 65.66 253.227 66.44 253.227 67.4C253.227 68.36 253.247 69.14 253.287 69.74C253.407 72.34 254.047 74.32 255.207 75.68C256.367 77 258.007 77.66 260.127 77.66ZM297.135 83.6C293.415 83.6 290.295 83.06 287.775 81.98C285.295 80.86 283.395 79.42 282.075 77.66C280.795 75.86 280.115 73.98 280.035 72.02C280.035 71.66 280.155 71.36 280.395 71.12C280.635 70.88 280.935 70.76 281.295 70.76H286.635C287.155 70.76 287.535 70.88 287.775 71.12C288.055 71.32 288.295 71.58 288.495 71.9C288.735 72.66 289.195 73.42 289.875 74.18C290.555 74.9 291.475 75.5 292.635 75.98C293.835 76.46 295.335 76.7 297.135 76.7C300.015 76.7 302.155 76.22 303.555 75.26C304.995 74.3 305.715 73 305.715 71.36C305.715 70.2 305.335 69.28 304.575 68.6C303.815 67.88 302.635 67.24 301.035 66.68C299.475 66.08 297.395 65.46 294.795 64.82C291.795 64.1 289.275 63.24 287.235 62.24C285.235 61.2 283.715 59.9 282.675 58.34C281.675 56.78 281.175 54.8 281.175 52.4C281.175 50.08 281.795 48.02 283.035 46.22C284.315 44.42 286.115 43 288.435 41.96C290.795 40.92 293.595 40.4 296.835 40.4C299.435 40.4 301.735 40.76 303.735 41.48C305.735 42.16 307.395 43.08 308.715 44.24C310.035 45.36 311.035 46.58 311.715 47.9C312.435 49.18 312.815 50.44 312.855 51.68C312.855 52 312.735 52.3 312.495 52.58C312.295 52.82 311.995 52.94 311.595 52.94H306.015C305.695 52.94 305.375 52.86 305.055 52.7C304.735 52.54 304.475 52.24 304.275 51.8C304.035 50.56 303.255 49.5 301.935 48.62C300.615 47.74 298.915 47.3 296.835 47.3C294.675 47.3 292.935 47.7 291.615 48.5C290.295 49.3 289.635 50.54 289.635 52.22C289.635 53.34 289.955 54.28 290.595 55.04C291.275 55.76 292.335 56.4 293.775 56.96C295.255 57.52 297.195 58.12 299.595 58.76C302.995 59.52 305.775 60.4 307.935 61.4C310.095 62.4 311.675 63.68 312.675 65.24C313.675 66.76 314.175 68.7 314.175 71.06C314.175 73.7 313.455 75.96 312.015 77.84C310.615 79.68 308.635 81.1 306.075 82.1C303.515 83.1 300.535 83.6 297.135 83.6ZM321.831 94.4C321.431 94.4 321.091 94.26 320.811 93.98C320.531 93.7 320.391 93.36 320.391 92.96V53.24C320.391 52.84 320.531 52.5 320.811 52.22C321.091 51.94 321.431 51.8 321.831 51.8H326.571C327.011 51.8 327.351 51.94 327.591 52.22C327.871 52.5 328.011 52.84 328.011 53.24V55.64C328.971 54.36 330.231 53.3 331.791 52.46C333.351 51.62 335.291 51.2 337.611 51.2C339.731 51.2 341.571 51.54 343.131 52.22C344.691 52.9 345.991 53.88 347.031 55.16C348.071 56.4 348.871 57.88 349.431 59.6C349.991 61.32 350.311 63.22 350.391 65.3C350.431 65.98 350.451 66.68 350.451 67.4C350.451 68.12 350.431 68.84 350.391 69.56C350.351 71.56 350.051 73.42 349.491 75.14C348.931 76.82 348.111 78.3 347.031 79.58C345.991 80.82 344.691 81.8 343.131 82.52C341.571 83.24 339.731 83.6 337.611 83.6C335.451 83.6 333.611 83.22 332.091 82.46C330.571 81.66 329.331 80.62 328.371 79.34V92.96C328.371 93.36 328.231 93.7 327.951 93.98C327.711 94.26 327.371 94.4 326.931 94.4H321.831ZM335.391 77.18C337.111 77.18 338.451 76.82 339.411 76.1C340.371 75.34 341.051 74.36 341.451 73.16C341.891 71.96 342.151 70.64 342.231 69.2C342.311 68 342.311 66.8 342.231 65.6C342.151 64.16 341.891 62.84 341.451 61.64C341.051 60.44 340.371 59.48 339.411 58.76C338.451 58 337.111 57.62 335.391 57.62C333.751 57.62 332.411 58 331.371 58.76C330.371 59.52 329.631 60.5 329.151 61.7C328.711 62.86 328.451 64.06 328.371 65.3C328.331 66.02 328.311 66.78 328.311 67.58C328.311 68.38 328.331 69.16 328.371 69.92C328.411 71.12 328.691 72.28 329.211 73.4C329.731 74.48 330.491 75.38 331.491 76.1C332.491 76.82 333.791 77.18 335.391 77.18ZM358.687 83C358.287 83 357.947 82.86 357.667 82.58C357.387 82.3 357.247 81.96 357.247 81.56V41.84C357.247 41.44 357.387 41.1 357.667 40.82C357.947 40.54 358.287 40.4 358.687 40.4H364.027C364.467 40.4 364.807 40.54 365.047 40.82C365.327 41.1 365.467 41.44 365.467 41.84V55.52C366.547 54.24 367.867 53.2 369.427 52.4C370.987 51.6 372.907 51.2 375.187 51.2C377.627 51.2 379.747 51.76 381.547 52.88C383.387 53.96 384.807 55.5 385.807 57.5C386.807 59.5 387.307 61.9 387.307 64.7V81.56C387.307 81.96 387.167 82.3 386.887 82.58C386.607 82.86 386.267 83 385.867 83H380.467C380.067 83 379.727 82.86 379.447 82.58C379.167 82.3 379.027 81.96 379.027 81.56V65.06C379.027 62.74 378.447 60.92 377.287 59.6C376.167 58.28 374.527 57.62 372.367 57.62C370.287 57.62 368.607 58.28 367.327 59.6C366.087 60.92 365.467 62.74 365.467 65.06V81.56C365.467 81.96 365.327 82.3 365.047 82.58C364.807 82.86 364.467 83 364.027 83H358.687ZM408.361 83.6C403.921 83.6 400.401 82.32 397.801 79.76C395.201 77.2 393.801 73.56 393.601 68.84C393.561 68.44 393.541 67.94 393.541 67.34C393.541 66.7 393.561 66.2 393.601 65.84C393.761 62.84 394.441 60.24 395.641 58.04C396.881 55.84 398.581 54.16 400.741 53C402.901 51.8 405.441 51.2 408.361 51.2C411.601 51.2 414.321 51.88 416.521 53.24C418.721 54.56 420.381 56.42 421.501 58.82C422.621 61.18 423.181 63.92 423.181 67.04V68.3C423.181 68.7 423.041 69.04 422.761 69.32C422.481 69.6 422.121 69.74 421.681 69.74H401.761C401.761 69.74 401.761 69.8 401.761 69.92C401.761 70.04 401.761 70.14 401.761 70.22C401.801 71.62 402.061 72.92 402.541 74.12C403.061 75.28 403.801 76.22 404.761 76.94C405.761 77.66 406.941 78.02 408.301 78.02C409.421 78.02 410.361 77.86 411.121 77.54C411.881 77.18 412.501 76.78 412.981 76.34C413.461 75.9 413.801 75.54 414.001 75.26C414.361 74.78 414.641 74.5 414.841 74.42C415.081 74.3 415.421 74.24 415.861 74.24H421.021C421.421 74.24 421.741 74.36 421.981 74.6C422.261 74.84 422.381 75.14 422.341 75.5C422.301 76.14 421.961 76.92 421.321 77.84C420.721 78.76 419.841 79.66 418.681 80.54C417.521 81.42 416.061 82.16 414.301 82.76C412.581 83.32 410.601 83.6 408.361 83.6ZM401.761 64.7H415.021V64.52C415.021 62.96 414.761 61.6 414.241 60.44C413.721 59.28 412.961 58.36 411.961 57.68C410.961 57 409.761 56.66 408.361 56.66C406.961 56.66 405.761 57 404.761 57.68C403.761 58.36 403.001 59.28 402.481 60.44C402.001 61.6 401.761 62.96 401.761 64.52V64.7ZM430.99 83C430.59 83 430.25 82.86 429.97 82.58C429.69 82.3 429.55 81.96 429.55 81.56V53.3C429.55 52.86 429.69 52.5 429.97 52.22C430.25 51.94 430.59 51.8 430.99 51.8H435.85C436.25 51.8 436.59 51.94 436.87 52.22C437.19 52.5 437.35 52.86 437.35 53.3V55.76C438.27 54.48 439.45 53.5 440.89 52.82C442.37 52.14 444.07 51.8 445.99 51.8H448.45C448.89 51.8 449.23 51.94 449.47 52.22C449.75 52.5 449.89 52.84 449.89 53.24V57.56C449.89 57.96 449.75 58.3 449.47 58.58C449.23 58.86 448.89 59 448.45 59H443.77C441.85 59 440.35 59.54 439.27 60.62C438.23 61.7 437.71 63.18 437.71 65.06V81.56C437.71 81.96 437.57 82.3 437.29 82.58C437.01 82.86 436.65 83 436.21 83H430.99ZM467.599 83.6C463.159 83.6 459.639 82.32 457.039 79.76C454.439 77.2 453.039 73.56 452.839 68.84C452.799 68.44 452.779 67.94 452.779 67.34C452.779 66.7 452.799 66.2 452.839 65.84C452.999 62.84 453.679 60.24 454.879 58.04C456.119 55.84 457.819 54.16 459.979 53C462.139 51.8 464.679 51.2 467.599 51.2C470.839 51.2 473.559 51.88 475.759 53.24C477.959 54.56 479.619 56.42 480.739 58.82C481.859 61.18 482.419 63.92 482.419 67.04V68.3C482.419 68.7 482.279 69.04 481.999 69.32C481.719 69.6 481.359 69.74 480.919 69.74H460.999C460.999 69.74 460.999 69.8 460.999 69.92C460.999 70.04 460.999 70.14 460.999 70.22C461.039 71.62 461.299 72.92 461.779 74.12C462.299 75.28 463.039 76.22 463.999 76.94C464.999 77.66 466.179 78.02 467.539 78.02C468.659 78.02 469.599 77.86 470.359 77.54C471.119 77.18 471.739 76.78 472.219 76.34C472.699 75.9 473.039 75.54 473.239 75.26C473.599 74.78 473.879 74.5 474.079 74.42C474.319 74.3 474.659 74.24 475.099 74.24H480.259C480.659 74.24 480.979 74.36 481.219 74.6C481.499 74.84 481.619 75.14 481.579 75.5C481.539 76.14 481.199 76.92 480.559 77.84C479.959 78.76 479.079 79.66 477.919 80.54C476.759 81.42 475.299 82.16 473.539 82.76C471.819 83.32 469.839 83.6 467.599 83.6ZM460.999 64.7H474.259V64.52C474.259 62.96 473.999 61.6 473.479 60.44C472.959 59.28 472.199 58.36 471.199 57.68C470.199 57 468.999 56.66 467.599 56.66C466.199 56.66 464.999 57 463.999 57.68C462.999 58.36 462.239 59.28 461.719 60.44C461.239 61.6 460.999 62.96 460.999 64.52V64.7Z" fill="black"/>
<defs>
<linearGradient id="paint0_linear_64_11" x1="42.985" y1="83" x2="42.985" y2="102.971" gradientUnits="userSpaceOnUse">
<stop stop-color="#7091FB"/>
<stop offset="1" stop-color="#FF41D6"/>
</linearGradient>
<linearGradient id="paint1_linear_64_11" x1="53.5" y1="98" x2="53.5" y2="108" gradientUnits="userSpaceOnUse">
<stop stop-color="#7091FB"/>
<stop offset="1" stop-color="#FF41D6"/>
</linearGradient>
</defs>
</svg>
